<?xml version="1.0" encoding="UTF-8" standalone="no"?>
<!-- Generator: Adobe Illustrator 19.0.0, SVG Export Plug-In . SVG Version: 6.00 Build 0)  -->

<svg
   xmlns:dc="http://purl.org/dc/elements/1.1/"
   xmlns:cc="http://creativecommons.org/ns#"
   xmlns:rdf="http://www.w3.org/1999/02/22-rdf-syntax-ns#"
   xmlns:svg="http://www.w3.org/2000/svg"
   xmlns="http://www.w3.org/2000/svg"
   xmlns:sodipodi="http://sodipodi.sourceforge.net/DTD/sodipodi-0.dtd"
   xmlns:inkscape="http://www.inkscape.org/namespaces/inkscape"
   version="1.1"
   id="Layer_1"
   x="0px"
   y="0px"
   viewBox="0 0 449.42969 220.41599"
   xml:space="preserve"
   sodipodi:docname="hackathon-logo.svg"
   width="449.42969"
   height="220.41599"
   inkscape:export-filename="/home/sebsheep/progs_div/hackaton-elm-france/graphics/hackaton-logo.png"
   inkscape:export-xdpi="96"
   inkscape:export-ydpi="96"
   inkscape:version="0.92.2 5c3e80d, 2017-08-06"><metadata
     id="metadata69"><rdf:RDF><cc:Work
         rdf:about=""><dc:format>image/svg+xml</dc:format><dc:type
           rdf:resource="http://purl.org/dc/dcmitype/StillImage" /><dc:title /></cc:Work></rdf:RDF></metadata><defs
     id="defs67" /><sodipodi:namedview
     pagecolor="#ffffff"
     bordercolor="#666666"
     borderopacity="1"
     objecttolerance="10"
     gridtolerance="10"
     guidetolerance="10"
     inkscape:pageopacity="0"
     inkscape:pageshadow="2"
     inkscape:window-width="1680"
     inkscape:window-height="925"
     id="namedview65"
     showgrid="false"
     fit-margin-top="0"
     fit-margin-left="0"
     fit-margin-right="0"
     fit-margin-bottom="0"
     inkscape:zoom="1"
     inkscape:cx="101.72803"
     inkscape:cy="73.252304"
     inkscape:window-x="-517"
     inkscape:window-y="172"
     inkscape:window-maximized="0"
     inkscape:current-layer="Layer_1" /><g
     id="g34"
     transform="translate(-852.63577,-406.08939)" /><g
     id="g36"
     transform="translate(-852.63577,-406.08939)" /><g
     id="g38"
     transform="translate(-852.63577,-406.08939)" /><g
     id="g40"
     transform="translate(-852.63577,-406.08939)" /><g
     id="g42"
     transform="translate(-852.63577,-406.08939)" /><g
     id="g44"
     transform="translate(-852.63577,-406.08939)" /><g
     id="g46"
     transform="translate(-852.63577,-406.08939)" /><g
     id="g48"
     transform="translate(-852.63577,-406.08939)" /><g
     id="g50"
     transform="translate(-852.63577,-406.08939)" /><g
     id="g52"
     transform="translate(-852.63577,-406.08939)" /><g
     id="g54"
     transform="translate(-852.63577,-406.08939)" /><g
     id="g56"
     transform="translate(-852.63577,-406.08939)" /><g
     id="g58"
     transform="translate(-852.63577,-406.08939)" /><g
     id="g60"
     transform="translate(-852.63577,-406.08939)" /><g
     id="g62"
     transform="translate(-852.63577,-406.08939)" /><polygon
     style="fill:#f0ad00;fill-opacity:1"
     points="231.514,82.916 91.783,82.916 161.649,152.782 "
     id="polygon4546"
     transform="matrix(0.63763295,0,0,0.63763295,139.14674,11.784817)" /><polygon
     style="fill:#7fd13b;fill-opacity:1"
     points="232.213,70.375 161.838,0 8.867,0 79.241,70.375 "
     id="polygon4548"
     transform="matrix(0.63763295,0,0,0.63763295,139.14674,11.784817)" /><rect
     style="fill:#7fd13b;stroke-width:0.63762683;fill-opacity:1"
     x="256.48755"
     y="-163.02693"
     transform="rotate(45)"
     width="68.657112"
     height="68.970184"
     id="rect4550" /><polygon
     style="fill:#60b5cc;fill-opacity:1"
     points="323.298,143.724 323.298,0 179.573,0 "
     id="polygon4552"
     transform="matrix(0.62960924,0.10083639,-0.10083639,0.62960924,173.10343,-18.107493)"
     inkscape:transform-center-x="12.548559"
     inkscape:transform-center-y="-157.71956" /><polygon
     style="fill:#5a6378;fill-opacity:1"
     points="152.781,161.649 0,8.868 0,314.432 "
     id="polygon4554"
     transform="matrix(0.5888056,-0.24471155,0.24471155,0.5888056,62.586527,27.521077)"
     inkscape:transform-center-x="11.870489"
     inkscape:transform-center-y="-88.802598" /><polygon
     style="fill:#f0ad00;fill-opacity:1;stroke:none;stroke-opacity:1"
     points="255.522,246.655 323.298,314.432 323.298,178.879 "
     id="polygon4556"
     transform="matrix(0.63763292,-2.0511796e-4,2.0511796e-4,0.63763292,139.0829,11.850721)"
     inkscape:transform-center-x="20.280313"
     inkscape:transform-center-y="-41.150825" /><polygon
     style="fill:#60b5cc;fill-opacity:1"
     points="8.869,323.298 314.43,323.298 161.649,170.517 "
     id="polygon4558"
     transform="matrix(0.63763295,0,0,0.63763295,139.14674,11.784817)" /><g
     id="g4646"
     transform="translate(-168.79743,-541.81853)"
     style="fill:#60b5cc;fill-opacity:1"><g
       id="XMLID_93_"
       style="fill:#60b5cc;fill-opacity:1"><path
         d="m 206.38988,638.39928 c 7.47545,1.30395 14.61868,-3.69842 15.92602,-11.1967 1.30607,-7.48982 -3.70687,-14.61995 -11.1967,-15.92602 -7.48982,-1.30607 -14.61995,3.70687 -15.92602,11.1967 -1.30607,7.4894 3.70687,14.61995 11.1967,15.92602 z"
         id="XMLID_1074_"
         inkscape:connector-curvature="0"
         style="stroke-width:0.42267632;fill:#60b5cc;fill-opacity:1"
         sodipodi:nodetypes="ccscc" /><path
         d="m 250.2969,614.81728 c -2.0766,-0.0652 -3.15164,0.84086 -4.36578,2.5752 l -13.27468,18.9577 -18.99703,8.6795 c 0,0 -19.44571,-3.61344 -21.13134,-3.66374 -1.73128,-0.0516 -3.52403,0.16927 -4.95902,1.36544 -17.27692,70.22187 -2.49349,-2.83875 -18.71086,111.30587 -0.51439,3.97907 2.2942,7.62212 6.27328,8.13652 3.97992,0.5144 7.62212,-2.29463 8.13652,-6.27328 l 7.41252,-57.32383 1.67172,0.29142 19.82616,20.89771 -4.99286,34.15175 c -0.58076,3.9702 2.16768,7.65856 6.13788,8.23889 3.96175,0.58034 7.65771,-2.16052 8.23889,-6.13706 l 5.50388,-37.64296 c 0.3225,-2.20426 -0.38509,-4.43489 -1.91856,-6.05121 l -13.69653,-14.43703 c 0.8424,-4.83035 6.4888,-37.20998 7.22595,-41.43632 l 20.68968,-9.45821 c 1.01019,-0.46156 1.8988,-1.18871 2.53577,-2.0983 l 13.02598,-18.8564 c -0.46655,-1.78508 -4.02996,-9.90394 -4.63157,-11.22166 z"
         id="XMLID_1107_"
         inkscape:connector-curvature="0"
         style="stroke-width:0.42267632;fill:#60b5cc;fill-opacity:1"
         sodipodi:nodetypes="ccccccccccccccccccccccc" /></g><g
       id="g4589"
       style="fill:#60b5cc;fill-opacity:1" /><g
       id="g4591"
       style="fill:#60b5cc;fill-opacity:1" /><g
       id="g4593"
       style="fill:#60b5cc;fill-opacity:1" /><g
       id="g4595"
       style="fill:#60b5cc;fill-opacity:1" /><g
       id="g4597"
       style="fill:#60b5cc;fill-opacity:1" /><g
       id="g4599"
       style="fill:#60b5cc;fill-opacity:1" /><g
       id="g4601"
       style="fill:#60b5cc;fill-opacity:1" /><g
       id="g4603"
       style="fill:#60b5cc;fill-opacity:1" /><g
       id="g4605"
       style="fill:#60b5cc;fill-opacity:1" /><g
       id="g4607"
       style="fill:#60b5cc;fill-opacity:1" /><g
       id="g4609"
       style="fill:#60b5cc;fill-opacity:1" /><g
       id="g4611"
       style="fill:#60b5cc;fill-opacity:1" /><g
       id="g4613"
       style="fill:#60b5cc;fill-opacity:1" /><g
       id="g4615"
       style="fill:#60b5cc;fill-opacity:1" /><g
       id="g4617"
       style="fill:#60b5cc;fill-opacity:1" /></g><path
     d="m 411.83723,93.657807 c -7.4755,1.30395 -14.6187,-3.69842 -15.926,-11.1967 -1.3061,-7.48982 3.7068,-14.61995 11.1967,-15.92602 7.4898,-1.30607 14.6199,3.70687 15.926,11.1967 1.3061,7.4894 -3.7069,14.61995 -11.1967,15.92602 z"
     id="XMLID_1074_-6"
     inkscape:connector-curvature="0"
     style="stroke-width:0.42267632;fill:#5a6378;fill-opacity:1"
     sodipodi:nodetypes="ccscc" /><path
     d="m 367.72713,70.013307 c 2.0766,-0.0652 3.3547,0.90336 4.5688,2.6377 l 13.2747,18.9577 18.9971,8.679503 c 0,0 19.4457,-3.613443 21.1313,-3.663743 1.7313,-0.0516 3.524,0.16927 4.959,1.36544 17.2769,70.221873 2.4935,-2.83875 18.7109,111.305873 0.5144,3.97907 -2.2942,7.62212 -6.2733,8.13652 -3.9799,0.5144 -7.6221,-2.29463 -8.1365,-6.27328 l -7.4125,-57.32383 -1.6718,0.29142 -19.8261,20.89771 4.9928,34.15175 c 0.5808,3.9702 -2.1676,7.65856 -6.1378,8.23889 -3.9618,0.58034 -7.6578,-2.16052 -8.2389,-6.13706 l -5.5039,-37.64296 c -0.3225,-2.20426 0.3851,-4.43489 1.9185,-6.05121 l 13.6966,-14.43703 c -0.8424,-4.83035 -6.4888,-37.20998 -7.226,-41.43632 l -20.6897,-9.45821 c -1.0102,-0.46156 -1.8988,-1.18871 -2.5357,-2.0983 l -10.6354,-17.293903 c 0.3259,-1.94133 1.7955,-11.38832 2.0379,-12.84666 z"
     id="XMLID_1107_-7"
     inkscape:connector-curvature="0"
     style="stroke-width:0.42267632;fill:#5a6378;fill-opacity:1"
     sodipodi:nodetypes="ccccccccccccccccccccccc" /><ellipse
     style="opacity:1;fill:#5a6378;fill-opacity:1;fill-rule:nonzero;stroke:none;stroke-width:20.59455299;stroke-linejoin:round;stroke-miterlimit:4;stroke-dasharray:none;stroke-dashoffset:0;stroke-opacity:1"
     id="path4703"
     ry="5.64921"
     rx="2.5679049"
     cy="268.96216"
     cx="321.0311"
     transform="matrix(0.87381231,-0.48626334,0.52177762,0.85308154,0,0)" /><path
     style="fill:#5a6378;fill-opacity:1;stroke:#5a6378;stroke-width:1px;stroke-linecap:butt;stroke-linejoin:miter;stroke-opacity:1"
     d="m 419.09752,73.372974 c 9.45756,-18.826718 11.45821,-4.065595 12.51886,-0.795226 1.67939,5.214912 4.72878,5.966214 4.72878,5.966214 0,0 -1.45841,1.767767 -4.11006,-0.441942 -2.65165,-2.209709 -4.23035,-4.456679 -4.76068,-6.577999 -0.53033,-2.121321 -4.7578,4.888548 -4.7578,4.888548 z"
     id="path4705"
     inkscape:connector-curvature="0"
     sodipodi:nodetypes="cccsscc" /></svg>