<?xml version="1.0" encoding="UTF-8" standalone="no"?>
<!-- Generator: Adobe Illustrator 19.0.0, SVG Export Plug-In . SVG Version: 6.00 Build 0)  -->

<svg
   xmlns:dc="http://purl.org/dc/elements/1.1/"
   xmlns:cc="http://creativecommons.org/ns#"
   xmlns:rdf="http://www.w3.org/1999/02/22-rdf-syntax-ns#"
   xmlns:svg="http://www.w3.org/2000/svg"
   xmlns="http://www.w3.org/2000/svg"
   xmlns:sodipodi="http://sodipodi.sourceforge.net/DTD/sodipodi-0.dtd"
   xmlns:inkscape="http://www.inkscape.org/namespaces/inkscape"
   version="1.1"
   id="Layer_1"
   x="0px"
   y="0px"
   viewBox="0 0 196 196"
   xml:space="preserve"
   sodipodi:docname="icon.svg"
   width="196"
   height="196"
   inkscape:export-filename="/home/sebsheep/progs_div/hackaton-elm-france/graphics/hackaton-logo.png"
   inkscape:export-xdpi="96"
   inkscape:export-ydpi="96"
   inkscape:version="0.92.1 r15371"><metadata
     id="metadata69"><rdf:RDF><cc:Work
         rdf:about=""><dc:format>image/svg+xml</dc:format><dc:type
           rdf:resource="http://purl.org/dc/dcmitype/StillImage" /><dc:title></dc:title></cc:Work></rdf:RDF></metadata><defs
     id="defs67" /><sodipodi:namedview
     pagecolor="#ffffff"
     bordercolor="#666666"
     borderopacity="1"
     objecttolerance="10"
     gridtolerance="10"
     guidetolerance="10"
     inkscape:pageopacity="0"
     inkscape:pageshadow="2"
     inkscape:window-width="1680"
     inkscape:window-height="925"
     id="namedview65"
     showgrid="false"
     fit-margin-top="0"
     fit-margin-left="0"
     fit-margin-right="0"
     fit-margin-bottom="0"
     inkscape:zoom="1"
     inkscape:cx="-62.27197"
     inkscape:cy="75.252304"
     inkscape:window-x="0"
     inkscape:window-y="123"
     inkscape:window-maximized="0"
     inkscape:current-layer="Layer_1" /><g
     id="g34"
     transform="translate(-852.63577,-432.50538)" /><g
     id="g36"
     transform="translate(-852.63577,-432.50538)" /><g
     id="g38"
     transform="translate(-852.63577,-432.50538)" /><g
     id="g40"
     transform="translate(-852.63577,-432.50538)" /><g
     id="g42"
     transform="translate(-852.63577,-432.50538)" /><g
     id="g44"
     transform="translate(-852.63577,-432.50538)" /><g
     id="g46"
     transform="translate(-852.63577,-432.50538)" /><g
     id="g48"
     transform="translate(-852.63577,-432.50538)" /><g
     id="g50"
     transform="translate(-852.63577,-432.50538)" /><g
     id="g52"
     transform="translate(-852.63577,-432.50538)" /><g
     id="g54"
     transform="translate(-852.63577,-432.50538)" /><g
     id="g56"
     transform="translate(-852.63577,-432.50538)" /><g
     id="g58"
     transform="translate(-852.63577,-432.50538)" /><g
     id="g60"
     transform="translate(-852.63577,-432.50538)" /><g
     id="g62"
     transform="translate(-852.63577,-432.50538)" /><polygon
     style="fill:#5a6378;fill-opacity:1"
     points="0,314.432 152.781,161.649 0,8.868 "
     id="polygon4554"
     transform="matrix(0.5888056,-0.24471155,0.24471155,0.5888056,62.586527,1.1050919)"
     inkscape:transform-center-x="11.870489"
     inkscape:transform-center-y="-88.802598" /><g
     id="g4646"
     transform="translate(-168.79743,-568.23452)"
     style="fill:#60b5cc;fill-opacity:1"><g
       id="XMLID_93_"
       style="fill:#60b5cc;fill-opacity:1"><path
         d="m 206.38988,638.39928 c 7.47545,1.30395 14.61868,-3.69842 15.92602,-11.1967 1.30607,-7.48982 -3.70687,-14.61995 -11.1967,-15.92602 -7.48982,-1.30607 -14.61995,3.70687 -15.92602,11.1967 -1.30607,7.4894 3.70687,14.61995 11.1967,15.92602 z"
         id="XMLID_1074_"
         inkscape:connector-curvature="0"
         style="fill:#60b5cc;fill-opacity:1;stroke-width:0.42267632"
         sodipodi:nodetypes="ccscc" /><path
         d="m 250.2969,614.81728 c -2.0766,-0.0652 -3.15164,0.84086 -4.36578,2.5752 l -13.27468,18.9577 -18.99703,8.6795 c 0,0 -19.44571,-3.61344 -21.13134,-3.66374 -1.73128,-0.0516 -3.52403,0.16927 -4.95902,1.36544 -17.27692,70.22187 -2.49349,-2.83875 -18.71086,111.30587 -0.51439,3.97907 2.2942,7.62212 6.27328,8.13652 3.97992,0.5144 7.62212,-2.29463 8.13652,-6.27328 l 7.41252,-57.32383 1.67172,0.29142 19.82616,20.89771 -4.99286,34.15175 c -0.58076,3.9702 2.16768,7.65856 6.13788,8.23889 3.96175,0.58034 7.65771,-2.16052 8.23889,-6.13706 l 5.50388,-37.64296 c 0.3225,-2.20426 -0.38509,-4.43489 -1.91856,-6.05121 l -13.69653,-14.43703 c 0.8424,-4.83035 6.4888,-37.20998 7.22595,-41.43632 l 20.68968,-9.45821 c 1.01019,-0.46156 1.8988,-1.18871 2.53577,-2.0983 l 13.02598,-18.8564 c -0.46655,-1.78508 -4.02996,-9.90394 -4.63157,-11.22166 z"
         id="XMLID_1107_"
         inkscape:connector-curvature="0"
         style="fill:#60b5cc;fill-opacity:1;stroke-width:0.42267632"
         sodipodi:nodetypes="ccccccccccccccccccccccc" /></g><g
       id="g4589"
       style="fill:#60b5cc;fill-opacity:1" /><g
       id="g4591"
       style="fill:#60b5cc;fill-opacity:1" /><g
       id="g4593"
       style="fill:#60b5cc;fill-opacity:1" /><g
       id="g4595"
       style="fill:#60b5cc;fill-opacity:1" /><g
       id="g4597"
       style="fill:#60b5cc;fill-opacity:1" /><g
       id="g4599"
       style="fill:#60b5cc;fill-opacity:1" /><g
       id="g4601"
       style="fill:#60b5cc;fill-opacity:1" /><g
       id="g4603"
       style="fill:#60b5cc;fill-opacity:1" /><g
       id="g4605"
       style="fill:#60b5cc;fill-opacity:1" /><g
       id="g4607"
       style="fill:#60b5cc;fill-opacity:1" /><g
       id="g4609"
       style="fill:#60b5cc;fill-opacity:1" /><g
       id="g4611"
       style="fill:#60b5cc;fill-opacity:1" /><g
       id="g4613"
       style="fill:#60b5cc;fill-opacity:1" /><g
       id="g4615"
       style="fill:#60b5cc;fill-opacity:1" /><g
       id="g4617"
       style="fill:#60b5cc;fill-opacity:1" /></g></svg>